<?xml version="1.0" encoding="UTF-8" ?>
<!DOCTYPE svg PUBLIC "-//W3C//DTD SVG 1.1//EN" "http://www.w3.org/Graphics/SVG/1.1/DTD/svg11.dtd">
<svg width="69pt" height="69pt" viewBox="0 0 69 69" version="1.1" xmlns="http://www.w3.org/2000/svg">
<g id="#005f87ff">
<path fill="#005f87" opacity="1.00" d=" M 18.53 0.00 L 50.33 0.00 C 59.94 0.83 68.09 8.96 69.00 18.55 L 69.00 50.33 C 68.17 59.94 60.05 68.08 50.46 69.00 L 18.64 69.00 C 9.04 68.16 0.91 60.04 0.00 50.45 L 0.00 18.64 C 0.84 9.05 8.95 0.92 18.53 0.00 M 16.43 7.61 C 10.76 9.34 6.73 15.07 6.96 20.99 C 6.96 30.35 6.86 39.72 7.01 49.08 C 7.15 55.89 13.17 61.88 19.97 61.99 C 27.98 62.17 35.99 61.99 44.00 62.07 C 47.55 62.06 51.34 62.31 54.57 60.56 C 59.22 58.27 62.21 53.16 62.04 47.99 C 62.07 38.98 62.07 29.97 62.04 20.97 C 62.24 15.29 58.55 9.77 53.21 7.84 C 47.96 6.18 42.35 7.23 36.95 6.94 C 30.12 7.26 23.15 6.23 16.43 7.61 Z" />
<path fill="#005f87" opacity="1.00" d=" M 50.16 13.09 C 52.94 11.25 57.01 13.70 56.69 17.00 C 56.70 20.07 52.93 22.19 50.31 20.57 C 47.44 19.16 47.37 14.61 50.16 13.09 Z" />
<path fill="#005f87" opacity="1.00" d=" M 30.17 17.15 C 39.69 14.50 50.37 21.29 52.03 31.01 C 54.26 40.72 46.82 51.14 36.93 52.20 C 27.54 53.76 17.91 46.48 16.81 37.04 C 15.33 28.26 21.51 19.13 30.17 17.15 M 30.30 24.48 C 25.52 26.40 22.61 32.00 23.92 37.00 C 25.13 42.66 31.36 46.57 36.98 45.08 C 43.00 43.83 46.96 36.88 44.81 31.07 C 43.03 25.24 35.87 21.92 30.30 24.48 Z" />
</g>
</svg>
