<?xml version="1.0" encoding="UTF-8" ?>
<!DOCTYPE svg PUBLIC "-//W3C//DTD SVG 1.1//EN" "http://www.w3.org/Graphics/SVG/1.1/DTD/svg11.dtd">
<svg width="25pt" height="25pt" viewBox="0 0 25 25" version="1.1" xmlns="http://www.w3.org/2000/svg">
<g id="#fcfcfcfc">
<path fill="#fcfcfc" opacity="1.00" d=" M 10.67 0.00 L 14.17 0.00 C 19.64 0.80 24.08 5.24 25.00 10.67 L 25.00 14.17 C 24.20 19.64 19.76 24.08 14.33 25.00 L 10.83 25.00 C 5.36 24.20 0.92 19.76 0.00 14.33 L 0.00 10.83 C 0.80 5.36 5.24 0.92 10.67 0.00 M 8.31 2.51 C 4.55 4.09 1.82 7.90 1.69 12.00 C 1.27 17.78 6.25 23.20 12.02 23.31 C 18.51 23.81 24.33 17.44 23.22 11.02 C 22.50 4.23 14.55 -0.37 8.31 2.51 Z" />
<path fill="#fcfcfc" opacity="1.00" d=" M 11.63 9.34 C 12.08 7.40 10.32 3.21 13.17 3.14 C 13.52 5.30 13.40 7.50 13.36 9.68 C 13.99 10.27 14.62 10.85 15.27 11.42 C 16.90 11.55 18.40 12.05 19.77 12.93 C 18.73 13.08 16.66 13.36 15.63 13.51 C 14.30 14.90 12.14 16.42 10.43 14.63 C 8.63 12.82 10.41 10.80 11.63 9.34 M 12.13 11.25 C 10.35 11.62 11.13 14.51 12.85 13.97 C 14.60 13.57 13.87 10.70 12.13 11.25 Z" />
</g>
</svg>
