<?xml version="1.0" encoding="utf-8"?>
<!-- Generator: Adobe Illustrator 22.0.1, SVG Export Plug-In . SVG Version: 6.00 Build 0)  -->
<svg version="1.1" id="Capa_1" xmlns="http://www.w3.org/2000/svg" xmlns:xlink="http://www.w3.org/1999/xlink" x="0px" y="0px"
	 viewBox="0 0 512 512" style="enable-background:new 0 0 512 512;" xml:space="preserve">
<style type="text/css">
	.st0{fill:#005F87;}
</style>
<g>
	<path class="st0" d="M450.1,273.5c0.6-6.3,0.9-12,0.9-17.5c0-5.6-0.3-11.2-0.9-17.5l47.5-53.5c4.3-4.8,5-11.9,1.8-17.5l-45-77.9
		c-3.2-5.6-9.7-8.5-16-7.2l-70.2,14.4c-9.8-6.9-20-12.9-30.4-17.7l-22.5-68.6C313.2,4.2,307.5,0,301,0h-90
		c-6.5,0-12.2,4.2-14.2,10.3L174.2,79c-10.4,4.8-20.5,10.8-30.3,17.7L73.7,82.3c-6.3-1.3-12.8,1.6-16,7.2l-45,77.9
		c-3.2,5.6-2.5,12.6,1.8,17.5l47.5,53.5c-0.6,6.3-0.9,12-0.9,17.5c0,5.5,0.3,11.2,0.9,17.5l-47.5,53.5c-4.3,4.8-5,11.9-1.8,17.5
		l45,77.9c3.2,5.6,9.7,8.5,16,7.2l70.2-14.4c9.8,6.9,20,12.9,30.4,17.7l22.2,67.7c2.8,10.8,13.1,11.2,14.5,11.2h90
		c2.8,0,11.3-1.2,14.2-10.3l22.6-68.6c10.4-4.8,20.5-10.8,30.3-17.7l70.2,14.4c6.3,1.3,12.8-1.6,16-7.2l45-77.9
		c3.2-5.6,2.5-12.6-1.8-17.5L450.1,273.5z M202.6,268.5l45,30c5,3.4,11.6,3.4,16.6,0l45-30c4.2-2.8,6.7-7.5,6.7-12.5v-86.2
		c27.9,19.4,45,51.2,45,86.2c0,57.9-47.1,105-105,105s-105-47.1-105-105c0-35,17.1-66.8,45-86.2V256
		C196,261,198.5,265.7,202.6,268.5L202.6,268.5z M226,482v-94.4c9.7,2.2,19.7,3.4,30,3.4c10.3,0,20.3-1.2,30-3.4V482H226z
		 M433.8,398.1l-61.6-12.6c-5.1-2.6-11.3-2.2-16,1.4c-11.6,8.9-23.8,16.1-36.3,21.3c-1.4,0.6-2.7,1.4-3.9,2.4v-33.7
		c44.4-22.1,75-68,75-120.9c0-27.4-8.2-53.7-23.7-76.3c-15.1-22-36.1-38.9-60.7-48.9c-4.6-1.9-9.9-1.3-14,1.5
		c-4.1,2.8-6.6,7.5-6.6,12.4V248l-30,20l-30-20V144.8c0-5-2.5-9.7-6.6-12.4c-4.1-2.8-9.4-3.3-14-1.5c-24.6,10-45.6,26.9-60.7,48.9
		C129.1,202.3,121,228.6,121,256c0,52.9,30.6,98.8,75,120.9v33.6c-1.1-0.9-2.4-1.7-3.7-2.3c-12.6-5.3-24.8-12.4-36.3-21.3
		c-4.7-3.6-11-4-16-1.4l-61.6,12.6L44,338.9l41.9-47.2c4.7-3.1,7.3-8.6,6.6-14.4c-1-8.1-1.5-14.9-1.5-21.2s0.5-13.1,1.5-21.2
		c0.7-5.8-1.9-11.3-6.6-14.4L44,173.1l34.2-59.2l61.6,12.6c5.1,2.6,11.3,2.2,16-1.4c11.6-8.9,23.8-16.1,36.3-21.3
		c4-1.7,7.1-5,8.4-9.1L221.9,30h68.3l21.2,64.6c1.4,4.1,4.4,7.5,8.4,9.2c12.6,5.3,24.8,12.4,36.3,21.3c4.7,3.6,11,4,16,1.4
		l61.6-12.6l34.2,59.2l-41.9,47.2c-4.7,3.1-7.3,8.6-6.6,14.4c1,8.1,1.5,14.9,1.5,21.2c0,6.4-0.5,13.1-1.5,21.2
		c-0.7,5.8,1.9,11.3,6.6,14.4l41.9,47.2L433.8,398.1z"/>
</g>
</svg>
