<?xml version="1.0" encoding="utf-8"?>
<!-- Generator: Adobe Illustrator 22.0.1, SVG Export Plug-In . SVG Version: 6.00 Build 0)  -->
<svg version="1.1" id="Layer_1" xmlns="http://www.w3.org/2000/svg" xmlns:xlink="http://www.w3.org/1999/xlink" x="0px" y="0px"
	 viewBox="0 0 512 512" style="enable-background:new 0 0 512 512;" xml:space="preserve">
<style type="text/css">
	.st0{fill:#005F87;}
</style>
<path class="st0" d="M497,482V15c0-8.3-6.7-15-15-15s-15,6.7-15,15v316h-63.6c1.7-4.7,2.6-9.7,2.6-15v-17.6
	c17.5-6.2,30-22.9,30-42.4v-60c0-14.6-7-27.7-17.9-35.9l13.5-13.5c5.9-5.9,5.9-15.4,0-21.2c-5.9-5.9-15.4-5.9-21.2,0l-12.8,12.8
	l-15.5-46.5C375.9,73.4,358.8,61,339.4,61H172.6c-19.4,0-36.6,12.4-42.7,30.8l-15.5,46.5l-12.8-12.8c-5.9-5.9-15.4-5.9-21.2,0
	c-5.9,5.9-5.9,15.4,0,21.2l13.5,13.5C83,168.3,76,181.4,76,196v60c0,19.6,12.5,36.2,30,42.4V316c0,5.3,0.9,10.3,2.6,15H45V15
	c0-8.3-6.7-15-15-15S15,6.7,15,15v467c-8.3,0-15,6.7-15,15s6.7,15,15,15h30c8.3,0,15-6.7,15-15s-6.7-15-15-15V361h166
	c8.3,0,15-6.7,15-15s-6.7-15-15-15h-17.6c1.7-4.7,2.6-9.7,2.6-15v-15h120v15c0,5.3,0.9,10.3,2.6,15H301c-8.3,0-15,6.7-15,15
	s6.7,15,15,15h166v121c-8.3,0-15,6.7-15,15s6.7,15,15,15h30c8.3,0,15-6.7,15-15S505.3,482,497,482z M391,271h-75v-15
	c0-8.3-6.7-15-15-15s-15,6.7-15,15v15h-60v-15c0-8.3-6.7-15-15-15s-15,6.7-15,15v15h-75c-8.3,0-15-6.7-15-15v-15h45
	c8.3,0,15-6.7,15-15s-6.7-15-15-15h-45v-15c0-8.3,6.7-15,15-15h269.9c0,0,0.1,0,0.1,0h0c8.3,0,15,6.7,15,15v15h-45
	c-8.3,0-15,6.7-15,15s6.7,15,15,15h45v15C406,264.3,399.3,271,391,271z M172.6,91h166.8c6.5,0,12.2,4.1,14.2,10.3l16.6,49.7H141.8
	l16.6-49.7C160.4,95.1,166.2,91,172.6,91z M166,316c0,8.3-6.7,15-15,15s-15-6.7-15-15v-15h30V316z M346,316v-15h30v15
	c0,8.3-6.7,15-15,15S346,324.3,346,316z"/>
</svg>
