<?xml version="1.0" encoding="utf-8"?>
<!-- Generator: Adobe Illustrator 22.0.1, SVG Export Plug-In . SVG Version: 6.00 Build 0)  -->
<svg version="1.1" id="Capa_1" xmlns="http://www.w3.org/2000/svg" xmlns:xlink="http://www.w3.org/1999/xlink" x="0px" y="0px"
	 viewBox="0 0 512 512" style="enable-background:new 0 0 512 512;" xml:space="preserve">
<style type="text/css">
	.st0{fill:#005F87;}
</style>
<g>
	<path class="st0" d="M331.7,230.9L314,248.6l-4.4-4.4c-5.9-5.9-15.4-5.9-21.2,0c-5.9,5.9-5.9,15.4,0,21.2l15,15
		c2.9,2.9,6.8,4.4,10.6,4.4s7.7-1.5,10.6-4.4l28.4-28.4c5.9-5.9,5.9-15.4,0-21.2C347.1,225,337.6,225,331.7,230.9z"/>
	<path class="st0" d="M437.1,240.7h-35.6c-8.3,0-15,6.7-15,15c0,8.3,6.7,15,15,15h35.6c8.3,0,15-6.7,15-15S445.3,240.7,437.1,240.7z
		"/>
	<path class="st0" d="M331.7,318.5L314,336.3l-4.4-4.4c-5.9-5.9-15.4-5.9-21.2,0c-5.9,5.9-5.9,15.4,0,21.2l15,15
		c2.9,2.9,6.8,4.4,10.6,4.4s7.7-1.5,10.6-4.4l28.4-28.4c5.9-5.9,5.9-15.4,0-21.2C347.1,312.6,337.6,312.6,331.7,318.5z"/>
	<path class="st0" d="M437.1,328.3h-35.6c-8.3,0-15,6.7-15,15s6.7,15,15,15h35.6c8.3,0,15-6.7,15-15S445.3,328.3,437.1,328.3z"/>
	<path class="st0" d="M497,133h-45v-12c0-8.3-6.7-15-15-15h-3.1c-3.2-6.8-6.4-13.4-9.7-19.5C410.9,61.1,386.1,46,357.9,46H154.6
		c-28.2,0-53,15.1-66.3,40.4C76.9,108,42.3,189,36,203.2c-22.5,13.4-36,37-36,64.1l0,144c0,24.8,20.2,45,45,45h60.1
		c24.8,0,45-20.2,45-45v-20H224V451c0,8.3,6.7,15,15,15h258c8.3,0,15-6.7,15-15V148C512,139.7,505.3,133,497,133z M422,136v24H314
		v-24H422z M30,271.4h37c22.3,0,36.8,13.7,42.4,30H30L30,271.4z M120.1,411.4c0,8.3-6.7,15-15,15H45c-8.3,0-15-6.7-15-15v-35.1
		c12.9,9.8,28.6,15.1,45,15.1h45.1V411.4z M224,361.4h-21.9v-75c0-8.3,6.7-15,15-15h6.9V361.4z M224,241.3h-6.9
		c-24.8,0-45,20.2-45,45v75H75c-12,0-23.3-4.7-31.8-13.2c-4.8-4.8-8.4-10.5-10.6-16.8h94.5c4,0,7.8-1.6,10.7-4.4
		c2.8-2.8,4.4-6.7,4.3-10.7c-0.2-19-7.5-37.7-20.2-51.5c-13.9-15.1-33.4-23.4-54.8-23.4H38.1c4.9-6.9,11.8-12.4,20.3-15.8
		c38.1-15.2,98.5-25.1,165.6-27.5L224,241.3L224,241.3z M224,148v20c-56.4,2-108.8,9.2-148.6,20.3c2.3-5.3,28.7-67.4,39.5-87.9
		C123,84.9,137.5,76,154.6,76h203.3c17.1,0,31.6,8.9,39.8,24.4c0.9,1.8,1.9,3.7,2.8,5.5H299c-8.3,0-15,6.7-15,15v12h-45
		C230.7,133,224,139.7,224,148z M482,436H254V163h30v12c0,8.3,6.7,15,15,15h138c8.3,0,15-6.7,15-15v-12h30V436z"/>
</g>
</svg>
