<?xml version="1.0" encoding="utf-8"?>
<!-- Generator: Adobe Illustrator 22.0.1, SVG Export Plug-In . SVG Version: 6.00 Build 0)  -->
<svg version="1.1" id="Layer_1" xmlns="http://www.w3.org/2000/svg" xmlns:xlink="http://www.w3.org/1999/xlink" x="0px" y="0px"
	 viewBox="0 0 512 512" style="enable-background:new 0 0 512 512;" xml:space="preserve">
<style type="text/css">
	.st0{fill:#005F87;}
</style>
<g>
	<path class="st0" d="M486.3,256l24.5-58.1c2.8-6.7,0.8-14.5-5.1-18.9l-50.2-38.1l-7.9-62.5c-0.9-7.2-6.6-12.9-13.8-13.8l-62.5-7.9
		L333,6.3c-4.4-5.8-12.2-7.9-18.9-5.1L256,25.7L197.9,1.3c-6.7-2.8-14.5-0.7-18.9,5.1l-38.1,50.2l-62.5,7.9
		c-7.2,0.9-12.9,6.6-13.8,13.8l-7.9,62.5L6.3,179c-5.8,4.4-7.9,12.2-5.1,18.9L25.7,256L1.3,314.1c-2.8,6.7-0.7,14.5,5.1,18.9
		l50.2,38.1l7.9,62.5c0.9,7.2,6.6,12.9,13.8,13.8l62.5,7.9l38.1,50.2c3.1,4.1,7.9,6.3,12.7,6.3c4.6,0,2,0.5,64.3-25.7l58.1,24.5
		c6.7,2.8,14.5,0.8,18.9-5.1l38.1-50.2l62.5-7.9c7.2-0.9,12.9-6.6,13.8-13.8l7.9-62.5l50.2-38.1c5.8-4.4,7.9-12.2,5.1-18.9
		L486.3,256z M432,256c0,97-78.9,176-176,176S80,353,80,256S159,80,256,80S432,159,432,256z"/>
	<path class="st0" d="M256,112c-79.4,0-144,64.6-144,144s64.6,144,144,144s144-64.6,144-144S335.4,112,256,112z M168,208
		c0-17.6,14.4-32,32-32s32,14.3,32,32s-14.4,32-32,32S168,225.7,168,208z M212.6,345.8c-5.4,7-15.5,8.2-22.4,2.8
		c-7-5.4-8.2-15.5-2.8-22.4l112-144c5.4-7,15.5-8.2,22.4-2.8c7,5.4,8.2,15.5,2.8,22.4L212.6,345.8z M312,352c-17.6,0-32-14.3-32-32
		c0-17.6,14.4-32,32-32c17.6,0,32,14.3,32,32C344,337.6,329.6,352,312,352z"/>
</g>
</svg>
