<?xml version="1.0" encoding="utf-8"?>
<!-- Generator: Adobe Illustrator 22.0.1, SVG Export Plug-In . SVG Version: 6.00 Build 0)  -->
<svg version="1.1" id="Capa_1" xmlns="http://www.w3.org/2000/svg" xmlns:xlink="http://www.w3.org/1999/xlink" x="0px" y="0px"
	 viewBox="0 0 512 512" style="enable-background:new 0 0 512 512;" xml:space="preserve">
<style type="text/css">
	.st0{fill:#005F87;}
</style>
<g>
	<path class="st0" d="M19.2,506.3c2.8,3.6,7.2,5.7,11.8,5.7h450c4.6,0,9-2.1,11.8-5.7c2.8-3.6,3.9-8.4,2.8-12.8l-13-52.9
		C470.9,393.7,429,361,380.7,361H316v-16.1c27.5-15.9,48.1-42.4,56.2-73.9H391c24.8,0,45-20.2,45-45c0-14.1,0-30.9,0-45
		C436,81.2,355.3,0,256,0C156.7,0,76,81.2,76,181v105c0,24.8,20.2,45,45,45h55.7c5.9,5.2,12.4,9.9,19.3,13.9V361h-64.7
		c-48.3,0-90.2,32.7-101.9,79.6l-13,52.8C15.3,497.9,16.4,502.6,19.2,506.3z M248,482l8-20.1l8,20.1H248z M226,369.8v-12.6
		c9.6,2.5,19.6,3.8,30,3.8c10.4,0,20.4-1.3,30-3.8v12.6l-30,30L226,369.8z M380.7,391c34.5,0,64.4,23.4,72.7,56.7l8.4,34.3H296.2
		l-22.6-57.4l33.6-33.6H380.7z M406,226c0,8.3-6.7,15-15,15h-15v-60h15c8.3,0,15,6.7,15,15V226z M256,30
		c73.1,0,134.2,52.9,147.4,122.7c-3.9-1.1-8.1-1.7-12.4-1.7h-18.7C359,98.7,311.9,60,256,60s-103,38.7-116.3,91H121
		c-4.3,0-8.4,0.6-12.4,1.7C121.8,82.9,182.9,30,256,30L256,30z M327.4,125.7c-10.7,3.3-18.9,8-26.4,12.3c-12.2,7-22.8,13-45.1,13
		s-32.8-6-45.1-13c-7.5-4.3-15.6-8.9-26.4-12.3C201,104,226.9,90,256,90S311,104,327.4,125.7z M106,196c0-8.3,6.7-15,15-15h15v60
		h-15c-8.3,0-15-6.7-15-15V196z M121,301c-8.3,0-15-6.7-15-15v-17.6c4.7,1.7,9.7,2.6,15,2.6h18.8c2.7,10.6,6.9,20.7,12.3,30H121z
		 M166,181c0-9.8,1.5-19.2,4.4-28.1c10.3,2.3,17.6,6.5,25.7,11.1c13.9,8,29.7,17,59.9,17s46-9,59.9-17c8.1-4.6,15.4-8.8,25.7-11.1
		c2.8,8.8,4.4,18.3,4.4,28.1v58.3c-10.8-2.4-20.8-7-31.1-11.9c-16.4-7.7-35-16.4-58.9-16.4s-42.5,8.7-58.9,16.4
		c-10.3,4.9-20.3,9.5-31.1,11.9L166,181z M189,301c-8.2-9.2-14.6-20-18.5-32c15-3,27.7-9,39.4-14.4c14.9-7,29-13.6,46.1-13.6
		s31.2,6.6,46.1,13.6c11.6,5.5,24.4,11.4,39.4,14.4c-11.8,35.9-45.7,62-85.5,62c-11.6,0-22.7-2.2-32.9-6.2c1.8-2.5,2.9-5.5,2.9-8.8
		c0-8.3-6.7-15-15-15H189z M58.5,447.8c8.4-33.4,38.3-56.8,72.8-56.8h73.5l33.6,33.6L215.8,482H50.1L58.5,447.8z"/>
</g>
</svg>
