<?xml version="1.0" encoding="UTF-8" ?>
<!DOCTYPE svg PUBLIC "-//W3C//DTD SVG 1.1//EN" "http://www.w3.org/Graphics/SVG/1.1/DTD/svg11.dtd">
<svg width="23pt" height="23pt" viewBox="0 0 23 23" version="1.1" xmlns="http://www.w3.org/2000/svg">
<g id="#ffffffff">
<path fill="#ffffff" opacity="1.00" d=" M 5.56 0.00 L 17.23 0.00 C 20.10 0.58 22.25 2.78 23.00 5.57 L 23.00 17.23 C 22.42 20.09 20.23 22.25 17.44 23.00 L 5.77 23.00 C 2.91 22.42 0.75 20.23 0.00 17.43 L 0.00 5.77 C 0.58 2.90 2.77 0.75 5.56 0.00 M 6.32 2.42 C 4.02 2.58 2.25 4.79 2.35 7.05 C 2.28 10.26 2.20 13.48 2.42 16.69 C 2.59 18.99 4.80 20.75 7.06 20.65 C 10.70 20.57 14.49 21.15 18.04 20.22 C 21.61 18.58 20.52 14.12 20.71 11.00 C 20.67 8.13 21.27 4.10 17.96 2.74 C 14.17 1.89 10.18 2.37 6.32 2.42 Z" />
<path fill="#ffffff" opacity="1.00" d=" M 17.07 4.24 C 18.78 3.66 19.66 6.56 17.86 6.95 C 16.12 7.55 15.28 4.66 17.07 4.24 Z" />
<path fill="#ffffff" opacity="1.00" d=" M 8.37 6.40 C 11.93 4.01 17.30 6.72 17.46 11.00 C 18.09 15.68 12.29 19.24 8.39 16.62 C 4.63 14.54 4.62 8.49 8.37 6.40 M 10.14 8.16 C 7.83 9.02 7.12 12.37 8.97 14.04 C 10.89 16.19 14.84 14.81 15.08 11.96 C 15.52 9.35 12.56 7.06 10.14 8.16 Z" />
</g>
</svg>
