<?xml version="1.0" encoding="UTF-8" ?>
<!DOCTYPE svg PUBLIC "-//W3C//DTD SVG 1.1//EN" "http://www.w3.org/Graphics/SVG/1.1/DTD/svg11.dtd">
<svg width="24pt" height="26pt" viewBox="0 0 24 26" version="1.1" xmlns="http://www.w3.org/2000/svg">
<g id="#ffffffff">
<path fill="#ffffff" opacity="1.00" d=" M 10.26 0.00 L 13.85 0.00 C 16.47 0.33 19.33 0.72 21.38 2.57 C 23.22 4.25 23.58 6.86 24.00 9.18 L 24.00 12.83 C 23.81 15.70 23.36 19.02 20.82 20.83 C 17.70 23.01 13.68 22.82 10.04 22.96 C 9.09 23.98 8.14 25.01 7.15 26.00 L 5.91 26.00 C 5.84 24.79 5.76 23.59 5.70 22.38 C 2.38 20.84 0.20 17.74 0.00 14.06 L 0.00 9.84 C 0.25 7.30 0.58 4.47 2.53 2.61 C 4.63 0.73 7.56 0.28 10.26 0.00 M 2.35 7.09 C 1.31 11.81 1.29 18.53 6.69 20.56 C 6.69 22.06 6.69 23.57 6.69 25.07 C 7.90 23.73 9.11 22.40 10.33 21.06 C 13.36 20.90 16.65 21.01 19.35 19.40 C 22.04 17.56 22.11 13.92 22.16 10.99 C 22.08 8.38 21.80 5.22 19.49 3.56 C 16.05 1.61 11.83 1.64 8.03 2.24 C 5.41 2.63 2.86 4.35 2.35 7.09 Z" />
<path fill="#ffffff" opacity="1.00" d=" M 5.01 7.05 C 5.93 6.37 6.88 5.72 7.86 5.11 C 8.63 6.51 10.99 7.96 9.61 9.71 C 7.92 11.81 11.74 15.64 13.82 14.02 C 15.19 12.61 16.70 14.59 17.72 15.42 C 18.87 16.65 16.51 17.81 16.01 18.79 C 10.73 16.89 6.46 12.52 5.01 7.05 Z" />
</g>
<g id="#4d4d4d4d">
<path fill="#4d4d4d" opacity="0.30" d=" M 10.69 4.95 C 13.43 4.62 15.66 6.18 17.54 7.95 C 16.68 9.13 15.82 10.31 14.98 11.50 C 13.87 10.11 12.77 8.71 11.66 7.31 C 12.33 7.16 13.65 6.85 14.31 6.70 C 13.41 6.26 11.60 5.38 10.69 4.95 Z" />
</g>
<g id="#5b5b5b5b">
<path fill="#5b5b5b" opacity="0.36" d=" M 17.05 9.74 C 20.39 9.91 15.48 12.72 17.05 9.74 Z" />
</g>
</svg>
