<?xml version="1.0" encoding="UTF-8" ?>
<!DOCTYPE svg PUBLIC "-//W3C//DTD SVG 1.1//EN" "http://www.w3.org/Graphics/SVG/1.1/DTD/svg11.dtd">
<svg width="24pt" height="26pt" viewBox="0 0 24 26" version="1.1" xmlns="http://www.w3.org/2000/svg">
<g id="#ffffffff">
<path fill="#ffffff" opacity="1.00" d=" M 10.28 0.00 L 13.87 0.00 C 16.51 0.34 19.40 0.74 21.44 2.62 C 23.24 4.32 23.60 6.92 24.00 9.24 L 24.00 12.90 C 23.81 15.77 23.33 19.07 20.79 20.85 C 17.67 23.01 13.67 22.83 10.04 22.96 C 9.09 23.98 8.14 25.01 7.15 26.00 L 5.91 26.00 C 5.84 24.80 5.77 23.59 5.71 22.39 C 2.41 20.84 0.20 17.76 0.00 14.09 L 0.00 9.76 C 0.25 7.22 0.61 4.39 2.59 2.55 C 4.70 0.72 7.59 0.27 10.28 0.00 M 2.33 7.15 C 1.31 11.87 1.31 18.54 6.69 20.57 C 6.69 22.07 6.69 23.57 6.69 25.07 C 7.90 23.74 9.11 22.40 10.32 21.06 C 13.35 20.91 16.62 21.00 19.33 19.42 C 22.05 17.57 22.11 13.91 22.16 10.96 C 22.07 8.34 21.78 5.15 19.43 3.52 C 15.97 1.61 11.77 1.64 7.97 2.25 C 5.35 2.65 2.83 4.41 2.33 7.15 Z" />
<path fill="#ffffff" opacity="1.00" d=" M 5.01 7.03 C 5.95 6.38 6.90 5.74 7.86 5.10 C 8.62 6.50 10.99 7.94 9.61 9.69 C 7.93 11.81 11.72 15.66 13.83 14.01 C 15.22 12.62 16.71 14.62 17.76 15.44 C 18.78 16.72 16.54 17.79 16.03 18.78 C 10.73 16.90 6.45 12.51 5.01 7.03 Z" />
</g>
<g id="#4d4d4d4d">
<path fill="#4d4d4d" opacity="0.30" d=" M 10.69 4.89 C 13.41 4.67 15.64 6.19 17.55 7.93 C 16.69 9.12 15.83 10.31 14.98 11.50 C 13.87 10.11 12.77 8.71 11.67 7.32 C 12.33 7.16 13.64 6.85 14.30 6.70 C 13.40 6.24 11.59 5.34 10.69 4.89 Z" />
</g>
<g id="#5b5b5b5b">
<path fill="#5b5b5b" opacity="0.36" d=" M 17.06 9.72 C 20.34 9.93 15.49 12.76 17.06 9.72 Z" />
</g>
</svg>
