<?xml version="1.0" encoding="UTF-8" ?>
<!DOCTYPE svg PUBLIC "-//W3C//DTD SVG 1.1//EN" "http://www.w3.org/Graphics/SVG/1.1/DTD/svg11.dtd">
<svg width="16pt" height="26pt" viewBox="0 0 16 26" version="1.1" xmlns="http://www.w3.org/2000/svg">
<g id="#a6a6a6a6">
<path fill="#a6a6a6" opacity="0.65" d=" M 0.00 0.00 L 0.30 0.00 L 0.09 0.10 L 0.00 0.30 L 0.00 0.00 Z" />
<path fill="#a6a6a6" opacity="0.65" d=" M 15.69 0.00 L 16.00 0.00 L 16.00 0.29 L 15.90 0.09 L 15.69 0.00 Z" />
<path fill="#a6a6a6" opacity="0.65" d=" M 0.00 25.65 C 0.09 25.74 0.28 25.91 0.37 26.00 L 0.00 26.00 L 0.00 25.65 Z" />
<path fill="#a6a6a6" opacity="0.65" d=" M 15.99 25.99 L 16.00 25.78 L 16.00 26.00 L 15.89 26.00 L 15.99 25.99 Z" />
</g>
<g id="#ffffffff">
<path fill="#ffffff" opacity="1.00" d=" M 0.30 0.00 L 15.69 0.00 L 15.90 0.09 L 16.00 0.29 L 16.00 25.78 L 15.99 25.99 L 15.89 26.00 L 0.37 26.00 C 0.28 25.91 0.09 25.74 0.00 25.65 L 0.00 0.30 L 0.09 0.10 L 0.30 0.00 M 1.82 1.63 L 1.70 2.87 C 5.89 2.88 10.09 2.88 14.28 2.87 L 14.20 1.63 C 10.07 1.63 5.95 1.63 1.82 1.63 M 1.75 4.57 C 1.75 9.86 1.75 15.14 1.75 20.43 C 5.92 20.44 10.08 20.44 14.25 20.43 C 14.25 15.14 14.25 9.86 14.25 4.57 C 10.08 4.56 5.92 4.56 1.75 4.57 M 1.75 22.03 C 1.76 22.60 1.76 23.76 1.76 24.34 C 3.25 24.37 4.73 24.40 6.22 24.43 C 6.76 22.56 9.22 22.69 9.83 24.42 C 11.30 24.39 12.77 24.37 14.24 24.35 C 14.24 23.76 14.24 22.60 14.25 22.02 C 10.08 22.25 5.92 22.18 1.75 22.03 Z" />
</g>
</svg>
