<?xml version="1.0" encoding="UTF-8" ?>
<!DOCTYPE svg PUBLIC "-//W3C//DTD SVG 1.1//EN" "http://www.w3.org/Graphics/SVG/1.1/DTD/svg11.dtd">
<svg width="21pt" height="28pt" viewBox="0 0 21 28" version="1.1" xmlns="http://www.w3.org/2000/svg">
<g id="#ffffffff">
<path fill="#ffffff" opacity="1.00" d=" M 9.09 0.00 L 11.48 0.00 C 16.32 0.38 20.30 4.46 21.00 9.19 L 21.00 12.08 C 19.47 18.30 14.36 22.78 10.93 28.00 L 10.09 28.00 C 6.62 22.88 1.76 18.40 0.00 12.34 L 0.00 9.73 C 0.32 4.87 4.31 0.71 9.09 0.00 M 2.24 13.87 C 4.43 18.17 7.74 21.77 10.47 25.72 C 13.19 22.02 16.18 18.48 18.47 14.48 C 21.34 9.09 17.01 1.75 10.90 1.69 C 4.72 1.18 -0.18 8.22 2.24 13.87 Z" />
<path fill="#ffffff" opacity="1.00" d=" M 9.00 5.09 C 13.03 3.77 17.19 8.03 16.01 12.01 C 15.32 15.99 9.91 17.88 6.91 15.14 C 3.34 12.46 4.63 6.11 9.00 5.09 M 8.31 7.26 C 5.97 8.73 5.90 12.49 8.23 14.00 C 10.63 15.90 14.46 13.89 14.48 10.90 C 14.84 7.79 10.89 5.33 8.31 7.26 Z" />
</g>
</svg>
